<?xml version="1.0" encoding="utf-8"?>
<!-- Generator: Adobe Illustrator 22.0.1, SVG Export Plug-In . SVG Version: 6.00 Build 0)  -->
<svg version="1.1" id="Layer_1" xmlns="http://www.w3.org/2000/svg" xmlns:xlink="http://www.w3.org/1999/xlink" x="0px" y="0px"
	 viewBox="0 0 300 300" style="enable-background:new 0 0 300 300;" xml:space="preserve">
<style type="text/css">
	.st0{fill:#FFFFFF;}
</style>
<g>
	<g>
		<path class="st0" d="M150,0C67.2,0,0,67.2,0,150s67.2,150,150,150s150-67.2,150-150S232.8,0,150,0z M223,99.5l-32.4,30.7
			l20.6,82.8l-12.3,12.3l-39.3-64l-0.9-0.9l-40.4,38.2c-0.2,0.2-0.5,0.4-0.7,0.6l-1.3,29.5l-45-45l29.5-1.3c0.2-0.2,0.4-0.5,0.6-0.7
			l38.2-40.4l-0.3-0.3l-64.6-39.8L87,88.9l82.5,20.9L200.5,77c6.2-6.2,16.3-6.2,22.4,0C229.2,83.2,229.2,93.3,223,99.5z"/>
	</g>
</g>
</svg>
