<?xml version="1.0" encoding="utf-8"?>
<!-- Generator: Adobe Illustrator 22.0.1, SVG Export Plug-In . SVG Version: 6.00 Build 0)  -->
<svg version="1.1" id="Layer_1" xmlns="http://www.w3.org/2000/svg" xmlns:xlink="http://www.w3.org/1999/xlink" x="0px" y="0px"
	 viewBox="0 0 512 512" style="enable-background:new 0 0 512 512;" xml:space="preserve">
<style type="text/css">
	.st0{fill:#FFFFFF;}
</style>
<path class="st0" d="M418.5,162.2C418.5,72.8,345.7,0,256.2,0C166.8,0,94,72.8,94,162.2c0,77.3,54.3,142.1,126.7,158.3L205,364.1
	c-1.7,4.6-1,9.7,1.8,13.7c2.8,4,7.4,6.4,12.3,6.4h22.2V497c0,8.3,6.7,15,15,15c8.3,0,15-6.7,15-15V384.2h22.2
	c4.9,0,9.5-2.4,12.3-6.4c2.8-4,3.5-9.1,1.8-13.7l-15.8-43.5C364.2,304.3,418.5,239.5,418.5,162.2z M249.4,329.6h13.7l8.9,24.6h-31.6
	L249.4,329.6z M256.2,294.5c-72.9,0-132.2-59.3-132.2-132.2C124,89.3,183.3,30,256.2,30c72.9,0,132.2,59.3,132.2,132.2
	C388.5,235.2,329.2,294.5,256.2,294.5z"/>
</svg>
