<?xml version="1.0" encoding="utf-8"?>
<!-- Generator: Adobe Illustrator 22.0.1, SVG Export Plug-In . SVG Version: 6.00 Build 0)  -->
<svg version="1.1" id="Capa_1" xmlns="http://www.w3.org/2000/svg" xmlns:xlink="http://www.w3.org/1999/xlink" x="0px" y="0px"
	 viewBox="0 0 281.3 281.3" style="enable-background:new 0 0 281.3 281.3;" xml:space="preserve">
<style type="text/css">
	.st0{fill:#FFFFFF;}
</style>
<path class="st0" d="M198.1,134.4c15.2-11.4,28.5-29.8,28.5-59.2v-0.8c0-18.7-6.3-34.9-18.6-48.3c-0.1-0.1-0.1-0.1-0.2-0.2
	C191,9,166,0,135.3,0H49.7c-5,0-9,4-9,9v263.3c0,5,4,9,9,9H140c29.4,0,54.3-7.2,72-20.9c18.7-14.4,28.6-35.2,28.6-60v-0.8
	C240.7,170.2,226,147.9,198.1,134.4z M140.7,236.6H86.8v-74.9h48.8c19.7,0,35.3,3.6,45.1,10.3c8.8,6,13,14.5,13,25.9v0.8
	C193.8,232.9,156.7,236.6,140.7,236.6z M130.6,117.4H86.8V44.7h46c29.8,0,47,12.4,47,33.9v0.8C179.7,112.4,148.9,117.4,130.6,117.4z
	"/>
</svg>
