<?xml version="1.0" encoding="utf-8"?>
<!-- Generator: Adobe Illustrator 22.0.1, SVG Export Plug-In . SVG Version: 6.00 Build 0)  -->
<svg version="1.1" id="Capa_1" xmlns="http://www.w3.org/2000/svg" xmlns:xlink="http://www.w3.org/1999/xlink" x="0px" y="0px"
	 viewBox="0 0 480 480" style="enable-background:new 0 0 480 480;" xml:space="preserve">
<style type="text/css">
	.st0{fill:#FFFFFF;}
</style>
<g>
	<g>
		<path class="st0" d="M304,128c-13.3,0-24,10.7-24,24v8h16v-8c0-4.4,3.6-8,8-8s8,3.6,8,8v8h16v-8C328,138.7,317.3,128,304,128z"/>
	</g>
</g>
<g>
	<g>
		<path class="st0" d="M384,128c-13.3,0-24,10.7-24,24v8h16v-8c0-4.4,3.6-8,8-8s8,3.6,8,8v8h16v-8C408,138.7,397.3,128,384,128z"/>
	</g>
</g>
<g>
	<g>
		<path class="st0" d="M360,184v8c0,8.8-7.2,16-16,16s-16-7.2-16-16v-8h-16v8c0,17.7,14.3,32,32,32s32-14.3,32-32v-8H360z"/>
	</g>
</g>
<g>
	<g>
		<path class="st0" d="M424,256h-40v-8.8c29-13.1,49.4-39.8,54.6-71.2h9.4c13.3,0,24-10.7,24-24s-10.7-24-24-24h-8V0H320
			c-39.7,0-72,32.3-72,72v56h-8c-13.3,0-24,10.7-24,24s10.7,24,24,24h9.4c5.2,31.4,25.7,58.1,54.6,71.2v8.8h-40
			c-30.9,0-56,25.1-56,56v8h-48v-8c0-13.3-10.7-24-24-24h-32c-13.3,0-24,10.7-24,24v8H8c-4.4,0-8,3.6-8,8v144c0,4.4,3.6,8,8,8h464
			c4.4,0,8-3.6,8-8V312C480,281.1,454.9,256,424,256z M440,144h8c4.4,0,8,3.6,8,8s-3.6,8-8,8h-8V144z M248,160h-8c-4.4,0-8-3.6-8-8
			s3.6-8,8-8h8V160z M408,272l-32.9,43.8l-1.5-1.5L355.3,296l24-24H408z M356.7,320l-8,8h-9.4l-8-8l12.7-12.7L356.7,320z M331.3,272
			h25.4L344,284.7L331.3,272z M264,72c0-30.9,25.1-56,56-56h104v48h-72v8c0,13.3-10.7,24-24,24h-64V72z M264,160v-48h64
			c19,0,35.4-13.4,39.2-32H424v80c0.1,33-20.1,62.6-50.9,74.5c-3.1,1.2-5.1,4.2-5.1,7.4V256h-48v-14.1c0-3.3-2-6.2-5.1-7.4
			C284.1,222.6,263.9,193,264,160z M308.7,272l24,24l-18.3,18.3l-1.5,1.5L280,272H308.7z M96,312c0-4.4,3.6-8,8-8h32
			c4.4,0,8,3.6,8,8v8H96V312z M224,464H16v-56h80v24c0,4.4,3.6,8,8,8h32c4.4,0,8-3.6,8-8v-24h80V464z M112,424v-16h16v16H112z
			 M224,392H16v-56h208V392z M240,464V328c0-4.4-3.6-8-8-8h-8v-8c0.1-20.6,15.8-37.7,36.3-39.6l45.3,60.4c1.4,1.9,3.5,3,5.8,3.2h0.6
			c2.1,0,4.2-0.8,5.7-2.3l2.3-2.3l7.4,7.4l-15.3,91.9c-0.4,2.2,0.2,4.4,1.5,6.1L334,464H240z M328.5,429.9l14.3-85.9h2.4l14.3,85.9
			L344,450.7L328.5,429.9z M464,464H354l20.4-27.2c1.3-1.8,1.9-4,1.5-6.1l-15.3-91.9l7.4-7.4l2.3,2.3c1.5,1.5,3.5,2.3,5.7,2.3h0.6
			c2.3-0.2,4.4-1.3,5.8-3.2l45.3-60.4c20.5,1.9,36.2,19,36.3,39.6V464z"/>
	</g>
</g>
</svg>
