<?xml version="1.0" encoding="utf-8"?>
<!-- Generator: Adobe Illustrator 22.0.1, SVG Export Plug-In . SVG Version: 6.00 Build 0)  -->
<svg version="1.1" id="Capa_1" xmlns="http://www.w3.org/2000/svg" xmlns:xlink="http://www.w3.org/1999/xlink" x="0px" y="0px"
	 viewBox="0 0 96 96" style="enable-background:new 0 0 96 96;" xml:space="preserve">
<style type="text/css">
	.st0{fill:#FCFEFB;}
</style>
<g>
	<path class="st0" d="M48.1,47.7C48,47.7,48,47.7,48.1,47.7c-0.1,0-0.1,0-0.1,0c-6,0-11.2-1.5-14.3,1.3c-1.9,1.7-2.6,3.8-2.6,6
		c0,9.3,7.4,10.4,16.9,10.4h0.1c9.5,0,16.9-1.1,16.9-10.4c0-2.2-0.8-4.3-2.6-6C59.3,46.2,54,47.7,48.1,47.7z M40,60.4
		c-1.8,0-3.3-2-3.3-4.5s1.5-4.5,3.3-4.5s3.3,2,3.3,4.5S41.8,60.4,40,60.4z M56,60.4c-1.8,0-3.3-2-3.3-4.5s1.5-4.5,3.3-4.5
		c1.8,0,3.3,2,3.3,4.5S57.8,60.4,56,60.4z M48,0C21.5,0,0,21.5,0,48s21.5,48,48,48c26.5,0,48-21.5,48-48S74.5,0,48,0z M52.4,67.7
		c-0.9,0-2.6,0-4.4,0c-1.8,0-3.5,0-4.4,0c-3.8,0-18.9-0.3-18.9-18.4c0-4.2,1.4-7.2,3.8-9.8c-0.4-0.9-0.4-6.2,1.6-11.2
		c0,0,4.6,0.5,11.5,5.3c1.5-0.4,3.9-0.6,6.4-0.6c2.5,0,4.9,0.2,6.4,0.6c6.9-4.8,11.5-5.3,11.5-5.3c2,5,2,10.3,1.6,11.2
		c2.3,2.5,3.8,5.6,3.8,9.8C71.2,67.4,56.2,67.7,52.4,67.7z"/>
</g>
</svg>
