<?xml version="1.0" encoding="utf-8"?>
<!-- Generator: Adobe Illustrator 22.0.1, SVG Export Plug-In . SVG Version: 6.00 Build 0)  -->
<svg version="1.1" id="Capa_1" xmlns="http://www.w3.org/2000/svg" xmlns:xlink="http://www.w3.org/1999/xlink" x="0px" y="0px"
	 viewBox="0 0 444.1 444.1" style="enable-background:new 0 0 444.1 444.1;" xml:space="preserve">
<style type="text/css">
	.st0{fill:#FFFFFF;}
</style>
<g>
	<g>
		<g>
			<path class="st0" d="M357.8,312.2c-3.3-7.8-11.2-12.9-18.7-16l-50.9-23.5l-24.5-20.6l-39.3,39.1h0l17,113.4
				c0.1,0.4,0,0.8-0.3,1.1l-17.7,24.3c-0.3,0.4-0.7,0.6-1.2,0.6c-0.5,0-0.9-0.2-1.2-0.6l-17.7-24.3c-0.2-0.3-0.3-0.7-0.3-1.1
				l17-113.4h0l-39.3-39.1l-24.5,20.6L105,296.3c-7.5,3.1-14.9,7.8-18.7,16c0,0-55.4,131.8-25.3,131.8h322.1
				C413.1,444.1,357.8,312.2,357.8,312.2z"/>
			<path class="st0" d="M361.3,131.5c0.8-0.1,1.5-0.4,1.9-1c0.5-0.6,0.7-1.4,0.6-2.1c-0.6-4.9-1.1-9.7-1.7-14.6l-1.2-10.2
				c-0.2-1.5-1.5-2.6-3.1-2.5l-2.2,0l0-34.2l1.2-0.4l3.8-1.4c3.3-1.2,5.4-4.3,5.4-7.7c0-3.5-2.2-6.5-5.4-7.7L224.8,0.5
				c-1.8-0.7-3.8-0.7-5.6,0L83.3,49.6c-3.3,1.2-5.4,4.3-5.4,7.7c0,3.5,2.2,6.5,5.4,7.7l50.2,18.2c-3.5,11.2-5.2,24-5,38.3
				c0.9,81.4,48.1,129.9,91.9,129.9c43.2,0,91-48.5,91.9-129.9c0.1-13.8-1.4-26.3-4.7-37.2l36.5-13.2l0.1,30l-2.2,0
				c-1.5-0.1-2.9,1-3.1,2.5l-2.9,24.8c-0.1,0.8,0.1,1.5,0.6,2.1c0.5,0.6,1.2,1,1.9,1 M220.4,231.7c-38.1,0-64.5-44.7-69.8-89.4
				c-4.9-41.3,54.8-43.2,58.3-17.6c1.1,7.9-8,16.3-6.9,19.6c5.1,16,88.8-52.4,88.2-1.9C289.8,177.9,256.8,231.7,220.4,231.7z"/>
		</g>
	</g>
</g>
</svg>
