<?xml version="1.0" encoding="utf-8"?>
<!-- Generator: Adobe Illustrator 22.0.1, SVG Export Plug-In . SVG Version: 6.00 Build 0)  -->
<svg version="1.1" id="Layer_1" xmlns="http://www.w3.org/2000/svg" xmlns:xlink="http://www.w3.org/1999/xlink" x="0px" y="0px"
	 viewBox="0 0 299.2 299.2" style="enable-background:new 0 0 299.2 299.2;" xml:space="preserve">
<style type="text/css">
	.st0{fill:#FFFFFF;}
</style>
<g id="XMLID_106_">
	<path id="XMLID_107_" class="st0" d="M22.3,0c-2.8,0-4.8,2.2-4.6,5L41,265c0.2,2.7,2.6,5.6,5.3,6.3l98.4,27.3c2.6,0.7,7,0.7,9.6,0
		l98.7-27.4c2.6-0.7,5-3.6,5.3-6.3L281.4,5c0.2-2.7-1.8-5-4.6-5H22.3z M232,59.6c-0.2,2.4-0.6,6.7-0.8,9.4l-0.6,6.8
		c-0.2,2.7-0.6,6.7-0.8,8.7c-0.2,2-0.4,3.7-0.4,3.7c0,0-2.3,0-5.1,0h-69.8c-2.8,0-5,0-5.1,0s-2.3,0-5.1,0h-36.7
		c-2.8,0-4.8,2.2-4.6,5l2.1,24c0.2,2.7,2.7,5,5.4,5h33.7c2.8,0,5,0,5.1,0s2.3,0,5.1,0h57.9c2.8,0,7,0,9.5,0c2.4,0,4.3,2,4.1,4.4
		c-0.2,2.4-0.6,6.7-0.8,9.4l-6.9,77.2c-0.2,2.7-0.6,6.2-0.7,7.8c-0.1,1.5-2.4,3.4-5.1,4.1l-58.1,16.1c-2.6,0.7-4.9,1.3-4.9,1.4
		s-2.2-0.6-4.9-1.3l-58.2-16.1c-2.7-0.7-5-3.6-5.3-6.3l-3.7-42c-0.2-2.7,1.8-5,4.6-5h5.3c2.8,0,7.2,0,10,0h7.9c2.8,0,5.2,2.2,5.4,5
		l1.5,16.5c0.2,2.7,2.6,5.6,5.3,6.3l27.2,7.4c2.7,0.7,4.8,1.3,4.8,1.3s2.2-0.6,4.8-1.3l27.3-7.4c2.7-0.7,5-3.5,5.3-6.3l3-33
		c0.2-2.7-1.8-5-4.6-5h-30.7c-2.8,0-5,0-5.1,0s-2.3,0-5.1,0h-64c-2.8,0-5.2-2.2-5.4-5l-7.3-81.3c-0.2-2.7-0.6-7-0.8-9.4
		c-0.2-2.4,1.9-4.4,4.6-4.4h72.9c2.8,0,5,0,5.1,0s2.3,0,5.1,0h72.8C230.2,55.2,232.3,57.2,232,59.6z"/>
</g>
</svg>
