<?xml version="1.0" encoding="utf-8"?>
<!-- Generator: Adobe Illustrator 22.0.1, SVG Export Plug-In . SVG Version: 6.00 Build 0)  -->
<svg version="1.1" id="Capa_1" xmlns="http://www.w3.org/2000/svg" xmlns:xlink="http://www.w3.org/1999/xlink" x="0px" y="0px"
	 viewBox="0 0 486.4 486.4" style="enable-background:new 0 0 486.4 486.4;" xml:space="preserve">
<style type="text/css">
	.st0{fill:#FEFFFD;}
</style>
<g>
	<g>
		<g>
			<path class="st0" d="M243.2,0C108.9,0,0,108.9,0,243.2s108.9,243.2,243.2,243.2s243.2-108.9,243.2-243.2
				C486.4,108.9,377.5,0,243.2,0z M182.4,361h-60.8V148.2h60.8V361z M153.9,135.2c-15.7,0-28.5-12.8-28.5-28.5s12.8-28.5,28.5-28.5
				c15.7,0,28.5,12.8,28.5,28.5C182.4,122.4,169.6,135.2,153.9,135.2z M395.2,361h-60.8V229.4c0-15.4-4.4-26.2-23.3-26.2
				c-31.4,0-37.5,26.2-37.5,26.2V361h-60.8V148.2h60.8v20.3c8.7-6.7,30.4-20.3,60.8-20.3c19.7,0,60.8,11.8,60.8,83.1L395.2,361
				L395.2,361z"/>
		</g>
	</g>
</g>
</svg>
