<?xml version="1.0" encoding="utf-8"?>
<!-- Generator: Adobe Illustrator 22.0.1, SVG Export Plug-In . SVG Version: 6.00 Build 0)  -->
<svg version="1.1" id="Layer_1" xmlns="http://www.w3.org/2000/svg" xmlns:xlink="http://www.w3.org/1999/xlink" x="0px" y="0px"
	 viewBox="0 0 1000 1000" style="enable-background:new 0 0 1000 1000;" xml:space="preserve">
<style type="text/css">
	.st0{fill:#FFFFFF;}
</style>
<g>
	<path class="st0" d="M500,0C223.7,0-0.2,224-0.2,500.2s224,500.2,500.2,500.2s500.2-224,500.2-500.2S776.3,0,500,0z M718.9,378.7
		h-6.1c0,0-18.3,0-18.3,18.3c0,18.3,0,206.7,0,206.7s0,18.3,18.3,18.3h6.1v48.6H573v-48.6h24.3V395.7h-2.5l-74.5,274.8h-65.6
		l-73.8-274.8h-2.5v226.1h24.3v48.6H281.1v-48.6h6.1c0,0,18.3,0,18.3-18.3s0-206.7,0-206.7s0-18.3-18.3-18.3h-6.1V330h161.3
		L499,540.6h1.8L557.9,330h160.8v48.7H718.9z"/>
</g>
</svg>
