<?xml version="1.0" encoding="utf-8"?>
<!-- Generator: Adobe Illustrator 22.0.1, SVG Export Plug-In . SVG Version: 6.00 Build 0)  -->
<svg version="1.1" id="Capa_1" xmlns="http://www.w3.org/2000/svg" xmlns:xlink="http://www.w3.org/1999/xlink" x="0px" y="0px"
	 viewBox="0 0 512 512" style="enable-background:new 0 0 512 512;" xml:space="preserve">
<style type="text/css">
	.st0{fill:#FFFFFF;}
</style>
<g>
	<g>
		<path class="st0" d="M375,160c-5.5,0-10,4.5-10,10s4.5,10,10,10s10-4.5,10-10S380.5,160,375,160z"/>
	</g>
</g>
<g>
	<g>
		<path class="st0" d="M137,160h-26c-5.5,0-10,4.5-10,10s4.5,10,10,10h26c5.5,0,10-4.5,10-10S142.5,160,137,160z"/>
	</g>
</g>
<g>
	<g>
		<path class="st0" d="M71,160c-5.5,0-10,4.5-10,10s4.5,10,10,10c5.5,0,10-4.5,10-10S76.5,160,71,160z"/>
	</g>
</g>
<g>
	<g>
		<path class="st0" d="M268.3,160c-5.5,0-10,4.5-10,10s4.5,10,10,10c5.5,0,10-4.5,10-10S273.9,160,268.3,160z"/>
	</g>
</g>
<g>
	<g>
		<path class="st0" d="M510,124c0,0-90-120-90-120c-1.9-2.5-4.9-4-8-4H100c-3.1,0-6.1,1.5-8,4C92,4,2,124,2,124c-1.3,1.7-2,3.7-2,6
			v80c0,2.5,0.9,4.7,2.4,6.4c0,0,246,292,246,292c1.9,2.3,4.7,3.6,7.6,3.6c2.9,0,5.7-1.3,7.6-3.6c0,0,246-292,246-292
			c1.5-1.7,2.4-4,2.4-6.4v-80C512,127.7,511.2,125.7,510,124z M413.3,28.4L482,120H353.5L413.3,28.4z M394.9,20L335,111.7L275.1,20
			H394.9z M308.3,180H325v20H188.3v-60H325v20h-16.7c-5.5,0-10,4.5-10,10S302.8,180,308.3,180z M316.5,120H196.8l59.9-91.7
			L316.5,120z M238.2,20l-59.9,91.7L118.5,20H238.2z M99.4,27.4l60.4,92.6H30L99.4,27.4z M20,140h148.3v60H20V140z M31.5,220H170
			l64.7,241.2L31.5,220z M256,463.4L190.7,220h130.6L256,463.4z M277.3,461.2L342,220h138.5L277.3,461.2z M492,160h-77
			c-5.5,0-10,4.5-10,10s4.5,10,10,10h77v20H345v-60h147V160z"/>
	</g>
</g>
</svg>
