<?xml version="1.0" encoding="iso-8859-1"?>
<!-- Generator: Adobe Illustrator 19.0.0, SVG Export Plug-In . SVG Version: 6.00 Build 0)  -->
<svg version="1.1" id="Layer_1" xmlns="http://www.w3.org/2000/svg" xmlns:xlink="http://www.w3.org/1999/xlink" x="0px" y="0px"
	 viewBox="0 0 511.999 511.999" style="enable-background:new 0 0 511.999 511.999;" xml:space="preserve">
<g>
	<g>
		<path d="M429.156,266.752c-7.772,0-15.397,1.085-22.726,3.209l-14.228-36.217c18.527-20.188,21.192-35.681,21.443-37.476
			l0.17-1.211l-8.015-48.088h20.703l3.902,46.821l-22.573,50.832l14.562,6.467l24.229-54.56l-5.458-65.495h-89.313l-20.224-51.478
			h-42.87v15.934h32.008l15.176,38.641l-40.434,16.992l-19.19,8.038l6.156,14.696l12.737-5.346l23.472,40.341
			c-20.224,21.438-37.91,34.913-47.086,41.296c-20.23-6.711-38.195-6.794-38.997-6.794l-0.011,15.934
			c0.182,0,18.4,0.131,37.472,7.206c15.503,5.566,27.099,14.056,34.513,25.231c-0.246,2.036-0.383,4.149-0.383,6.395
			c0,21.207-5.161,33.429-9.492,39.946c-3.186,4.796-6.317,7.215-7.934,8.245H181.123v15.934h109.171l1.424-0.57
			c0.82-0.328,8.22-3.49,15.224-13.296c8.748-12.248,13.183-29.156,13.183-50.259c0-2.725,0.242-5.12,0.739-7.324l0.033-0.155
			c5.729-27.924,42.775-43.345,57.496-48.431l13.215,33.609c-27.385,13.886-45.299,42.583-45.299,73.778
			c0,45.681,37.164,82.845,82.845,82.845c45.681,0,82.844-37.164,82.844-82.845C512,303.916,474.836,266.752,429.156,266.752z
			 M411.388,326.157l10.352,26.351l14.832-5.821l-10.375-26.408c0.978-0.099,1.964-0.153,2.958-0.153
			c16.251,0,29.472,13.221,29.472,29.472s-13.221,29.473-29.472,29.473c-16.251,0-29.472-13.222-29.472-29.473
			C399.684,340.309,404.172,331.646,411.388,326.157z M310.028,162.291l30.51-12.807l8.846,22.052
			c-6.107,8.534-12.634,16.86-19.507,24.87L310.028,162.291z M310.304,273.405c-5.943-6.307-13.127-11.681-21.508-16.078
			c11.283-8.562,27.73-22.412,45.629-42.007c7.694-8.434,15.026-17.27,21.92-26.37l15.441,38.66
			C356.226,233.107,323.795,247.286,310.304,273.405z M385.598,216.936l-27.487-69.967h31.536v0l8,47.997
			C396.918,197.745,394.191,206.009,385.598,216.936z M429.156,416.508c-36.895,0-66.912-30.016-66.912-66.912
			c0-24.662,13.853-47.391,35.226-58.867l7.93,20.184c-13.361,8.117-21.65,22.572-21.65,38.684c0,25.037,20.37,45.407,45.405,45.407
			s45.406-20.37,45.406-45.407c0-25.037-20.37-45.405-45.406-45.405c-3.027,0-6.012,0.307-8.926,0.897l-7.936-20.201
			c5.471-1.451,11.112-2.202,16.862-2.202c36.895,0,66.911,30.016,66.911,66.911C496.066,386.491,466.051,416.508,429.156,416.508z"
			/>
	</g>
</g>
<g>
	<g>
		<path d="M144.236,235.455L15.934,185.051v-21.878l166.42,40.603c-9.325,7.393-19.334,14.929-23.515,17.019l7.127,14.251
			c9.224-4.612,32.527-23.739,38.052-28.316l64.42-26.992l-6.156-14.696l-27.364,11.466c-28.404-10.325-56.791-19.335-84.417-26.768
			l-4.138,15.387c21.869,5.884,44.23,12.778,66.701,20.538l-13.879,5.816L70.371,160.019l18.203-8.087
			c5.156,0.89,18.922,3.433,39.154,8.397l3.796-15.475c-26.713-6.553-42.149-8.948-42.792-9.047l-2.307-0.354l-41.401,18.38
			L0,142.911v52.999l133.77,52.553l13.922,20.877l-13.527,15.244c-14.599-11.55-32.535-17.833-51.321-17.833
			C37.164,266.752,0,303.916,0,349.596s37.164,82.845,82.844,82.845c43.744,0,80.044-34.126,82.642-77.669
			c0.107-1.718,0.203-3.406,0.203-5.176c0-20.085-7.071-38.98-20.033-53.987l22.097-24.872l-7.612-11.451h53.74v-15.934h-64.357
			L144.236,235.455z M149.756,349.596c0,1.313-0.078,2.673-0.173,4.205c-2.098,35.162-31.413,62.706-66.738,62.706
			c-36.895,0-66.911-30.016-66.911-66.912c0-36.895,30.016-66.911,66.911-66.911c14.855,0,29.048,4.88,40.708,13.845l-14.3,16.075
			c-7.614-5.465-16.737-8.415-26.407-8.415c-25.036,0-45.405,20.368-45.405,45.406c0,25.037,20.37,45.406,45.405,45.406
			s45.406-20.37,45.406-45.406c0-9.194-2.759-18.038-7.86-25.547l14.564-16.394C144.54,319.498,149.756,334.107,149.756,349.596z
			 M88.796,359.572l20.481-23.023c1.983,4.026,3.039,8.47,3.039,13.047c0,16.251-13.221,29.473-29.472,29.473
			s-29.472-13.222-29.472-29.473s13.221-29.472,29.472-29.472c5.696,0,11.094,1.566,15.725,4.488l-21.678,24.369L88.796,359.572z"/>
	</g>
</g>
<g>
	<g>
		<path d="M260.679,276.111c-14.543,0-26.803,9.95-30.338,23.399h-30.5v15.934h0h30.5c3.535,13.449,15.794,23.399,30.338,23.399
			c17.295,0,31.366-14.072,31.366-31.366C292.045,290.183,277.975,276.111,260.679,276.111z M260.679,322.909
			c-8.508,0-15.432-6.924-15.432-15.432c0-8.509,6.924-15.432,15.432-15.432c8.51,0,15.432,6.924,15.432,15.432
			C276.111,315.986,269.188,322.909,260.679,322.909z"/>
	</g>
</g>
<g>
	<g>
		<rect x="171.764" y="299.508" width="18.719" height="15.934"/>
	</g>
</g>
<g>
	<g>
		<rect x="241.957" y="215.273" width="23.401" height="15.934"/>
	</g>
</g>
<g>
	<g>
		<rect x="213.882" y="215.273" width="23.401" height="15.934"/>
	</g>
</g>
<g>
</g>
<g>
</g>
<g>
</g>
<g>
</g>
<g>
</g>
<g>
</g>
<g>
</g>
<g>
</g>
<g>
</g>
<g>
</g>
<g>
</g>
<g>
</g>
<g>
</g>
<g>
</g>
<g>
</g>
</svg>
