<?xml version="1.0" encoding="utf-8"?>
<!-- Generator: Adobe Illustrator 22.0.1, SVG Export Plug-In . SVG Version: 6.00 Build 0)  -->
<svg version="1.1" id="Capa_1" xmlns="http://www.w3.org/2000/svg" xmlns:xlink="http://www.w3.org/1999/xlink" x="0px" y="0px"
	 viewBox="0 0 795 795" style="enable-background:new 0 0 795 795;" xml:space="preserve">
<style type="text/css">
	.st0{fill:#FFFFFF;}
	.st1{fill:none;stroke:#FFFFFF;stroke-width:5;stroke-miterlimit:10;}
</style>
<g>
	<path class="st0" d="M198.1,523c0,25,20.4,45.4,45.4,45.4h10.1h277h20.2h21v-20.2h-21v-50.4h21v-8.8h10.1H597v-20.2h-15.1v-50.4
		H597v-20.2h-15.1h-1.3v-6.7v-10.1v-0.4l-24.9-46.7h26.2v-27.1L516,226.6H283.7L223.8,321c-10.2,8.3-16.9,20.9-16.9,35.1
		c0,24.9,20.1,45.1,45,45.4c-16.7,6.7-28.6,23-28.6,42.1c0,13.9,6.4,26.1,16.2,34.4C216.3,480.1,198.1,499.3,198.1,523z
		 M227.1,356.1c0-9.4,5.2-17.5,12.9-21.9h300.7v47.1H252.3C238.4,381.3,227.1,370,227.1,356.1z M268.7,418.3h10.1h282.9v50.4H278.8
		h-10.1c-13.9,0-25.2-11.3-25.2-25.2C243.5,429.6,254.8,418.3,268.7,418.3z M243.5,497.8h10.1h277v50.4h-277h-10.1
		c-13.9,0-25.2-11.3-25.2-25.2C218.2,509.1,229.6,497.8,243.5,497.8z"/>
</g>
<circle class="st1" cx="397.5" cy="397.5" r="397.5"/>
</svg>
