<?xml version="1.0" encoding="utf-8"?>
<!-- Generator: Adobe Illustrator 22.0.1, SVG Export Plug-In . SVG Version: 6.00 Build 0)  -->
<svg version="1.1" id="Layer_1" xmlns="http://www.w3.org/2000/svg" xmlns:xlink="http://www.w3.org/1999/xlink" x="0px" y="0px"
	 viewBox="0 0 512 512" style="enable-background:new 0 0 512 512;" xml:space="preserve">
<style type="text/css">
	.st0{fill:#FFFFFF;}
</style>
<g>
	<g>
		<path class="st0" d="M488.5,4.3C486.4,2.1,484.3,0,480,0H32c-2.1,0-6.4,2.1-8.5,4.3c-2.1,2.1-2.1,4.3-2.1,8.5L64,439.5
			c0,4.3,4.3,8.5,6.4,8.5l192,64c2.1,0,2.1,0,4.3,0c2.1,0,2.1,0,4.3,0l170.7-64c4.3-2.1,6.4-4.3,6.4-8.5l42.7-426.7
			C490.7,10.7,490.7,6.4,488.5,4.3z M362.7,366.9c0,4.3-4.3,6.4-6.4,8.5l-85.3,32c-2.1,0-2.1,0-4.3,0c-2.1,0-2.1,0-4.3,0l-96-32
			c-4.3-2.1-6.4-4.3-6.4-8.5l-10.7-53.3c-2.1-6.4,2.1-10.7,8.5-12.8c6.4-2.1,10.7,2.1,12.8,8.5l8.5,46.9l87.5,29.9l76.8-27.7
			l21.3-119.5H151.5c-6.4,0-10.7-4.3-10.7-10.7c0-6.4,4.3-10.7,10.7-10.7h217.6l14.9-85.3H140.8c-6.4,0-10.7-4.3-10.7-10.7
			s4.3-10.7,10.7-10.7h256c2.1,0,6.4,2.1,8.5,4.3c2.1,2.1,2.1,6.4,2.1,8.5L362.7,366.9z"/>
	</g>
</g>
</svg>
