<?xml version="1.0" encoding="iso-8859-1"?>
<!-- Generator: Adobe Illustrator 18.0.0, SVG Export Plug-In . SVG Version: 6.00 Build 0)  -->
<!DOCTYPE svg PUBLIC "-//W3C//DTD SVG 1.1//EN" "http://www.w3.org/Graphics/SVG/1.1/DTD/svg11.dtd">
<svg version="1.1" id="Capa_1" xmlns="http://www.w3.org/2000/svg" xmlns:xlink="http://www.w3.org/1999/xlink" x="0px" y="0px"
	 viewBox="0 0 312.553 312.553" style="enable-background:new 0 0 312.553 312.553;" xml:space="preserve">
<path d="M302.553,0H10C4.477,0,0,4.478,0,10v292.553c0,5.522,4.477,10,10,10h292.553c5.523,0,10-4.478,10-10V10
	C312.553,4.478,308.076,0,302.553,0z M143.625,173.732c0,18.615-10.434,30.179-27.232,30.179c-10.55,0-19.978-5.292-26.547-14.901
	c-2.905-4.251-1.815-10.053,2.436-12.959c4.252-2.906,10.055-1.814,12.959,2.436c3.074,4.498,6.826,6.778,11.152,6.778
	c3.419,0,8.586,0,8.586-11.532v-47.467H99.504c-5.149,0-9.323-4.174-9.323-9.323c0-5.149,4.174-9.323,9.323-9.323h34.798
	c5.149,0,9.323,4.174,9.323,9.323V173.732z M189.441,205.6c-12.499,0-25.251-5.27-33.279-13.753
	c-3.54-3.74-3.377-9.642,0.362-13.181c3.741-3.54,9.644-3.377,13.181,0.362c4.486,4.74,12.417,7.925,19.736,7.925
	c7.493,0,16.244-2.188,16.244-8.351c0.048-5.81-3.045-7.986-17.415-12.339c-12.677-3.839-31.835-9.642-31.835-31.725
	c0-16.5,14.306-27.586,35.599-27.586c9.479,0,19.815,2.874,26.975,7.502c4.324,2.795,5.564,8.567,2.769,12.892
	c-2.796,4.324-8.568,5.564-12.892,2.769c-4.112-2.658-11.042-4.516-16.852-4.516c-7.82,0-16.952,2.342-16.952,8.939
	c0,7.165,4.189,9.516,18.594,13.879c12.277,3.718,30.83,9.337,30.656,30.262C224.331,194.75,210.31,205.6,189.441,205.6z"/>
<g>
</g>
<g>
</g>
<g>
</g>
<g>
</g>
<g>
</g>
<g>
</g>
<g>
</g>
<g>
</g>
<g>
</g>
<g>
</g>
<g>
</g>
<g>
</g>
<g>
</g>
<g>
</g>
<g>
</g>
</svg>
