<svg id="Layer_1" data-name="Layer 1" xmlns="http://www.w3.org/2000/svg" viewBox="0 0 512 311.11"><defs><style>.cls-1{fill:#bdc3c7;}</style></defs><title>mail1</title><path class="cls-1" d="M511.65,126.63a26.27,26.27,0,0,0-26.23-26.18h0l-459.2.63A26.22,26.22,0,0,0,0,127.34l.35,258a26.24,26.24,0,0,0,26.23,26.19h0l459.2-.64A26.25,26.25,0,0,0,512,384.66Zm-55,.08L256,266.15,55,127.26ZM340.85,292.47l119,92.27-408,.56,119.69-92.83a13.11,13.11,0,1,0-16.07-20.72l-128.91,100-.32-232.47L248.58,292.9a13.14,13.14,0,0,0,14.94,0L485.44,138.61l.33,233.07L356.92,271.75a13.11,13.11,0,1,0-16.07,20.72Z" transform="translate(0 -100.45)"/></svg>