<?xml version="1.0" encoding="iso-8859-1"?>
<!-- Generator: Adobe Illustrator 19.0.0, SVG Export Plug-In . SVG Version: 6.00 Build 0)  -->
<svg version="1.1" id="Layer_1" xmlns="http://www.w3.org/2000/svg" xmlns:xlink="http://www.w3.org/1999/xlink" x="0px" y="0px"
	 viewBox="0 0 512 512" style="enable-background:new 0 0 512 512;" xml:space="preserve">
<g>
	<g>
		<g>
			<path d="M503.467,187.733H409.6v-68.267H298.667c-4.71,0-8.533-3.823-8.533-8.533V0H8.533C3.823,0,0,3.823,0,8.533v494.933
				C0,508.177,3.823,512,8.533,512h392.533c4.719,0,8.533-3.823,8.533-8.533V409.6h93.867c4.719,0,8.533-3.823,8.533-8.533v-204.8
				C512,191.556,508.186,187.733,503.467,187.733z M494.933,392.533h-93.867H59.733V204.8h341.333h93.867V392.533z"/>
			<path d="M119.467,238.933c14.114,0,25.6,11.486,25.6,25.6c0,4.71,3.823,8.533,8.533,8.533c4.71,0,8.533-3.823,8.533-8.533
				c0-23.526-19.14-42.667-42.667-42.667S76.8,241.007,76.8,264.533c0,23.526,19.14,42.667,42.667,42.667
				c14.114,0,25.6,11.486,25.6,25.6c0,14.114-11.486,25.6-25.6,25.6s-25.6-11.486-25.6-25.6c0-4.71-3.823-8.533-8.533-8.533
				c-4.71,0-8.533,3.823-8.533,8.533c0,23.526,19.14,42.667,42.667,42.667s42.667-19.14,42.667-42.667
				c0-23.526-19.14-42.667-42.667-42.667c-14.114,0-25.6-11.486-25.6-25.6S105.353,238.933,119.467,238.933z"/>
			<path d="M332.8,238.933c14.114,0,25.6,11.486,25.6,25.6c0,4.71,3.823,8.533,8.533,8.533s8.533-3.823,8.533-8.533
				c0-23.526-19.14-42.667-42.667-42.667c-23.526,0-42.667,19.14-42.667,42.667c0,23.526,19.14,42.667,42.667,42.667
				c14.114,0,25.6,11.486,25.6,25.6c0,14.114-11.486,25.6-25.6,25.6c-14.114,0-25.6-11.486-25.6-25.6
				c0-4.71-3.823-8.533-8.533-8.533s-8.533,3.823-8.533,8.533c0,23.526,19.14,42.667,42.667,42.667
				c23.526,0,42.667-19.14,42.667-42.667c0-23.526-19.14-42.667-42.667-42.667c-14.114,0-25.6-11.486-25.6-25.6
				S318.686,238.933,332.8,238.933z"/>
			<path d="M435.2,307.2c14.114,0,25.6,11.486,25.6,25.6c0,14.114-11.486,25.6-25.6,25.6s-25.6-11.486-25.6-25.6
				c0-4.71-3.814-8.533-8.533-8.533c-4.71,0-8.533,3.823-8.533,8.533c0,23.526,19.14,42.667,42.667,42.667
				c23.526,0,42.667-19.14,42.667-42.667c0-23.526-19.14-42.667-42.667-42.667c-14.114,0-25.6-11.486-25.6-25.6
				s11.486-25.6,25.6-25.6s25.6,11.486,25.6,25.6c0,4.71,3.814,8.533,8.533,8.533s8.533-3.823,8.533-8.533
				c0-23.526-19.14-42.667-42.667-42.667c-23.526,0-42.667,19.14-42.667,42.667C392.533,288.06,411.674,307.2,435.2,307.2z"/>
			<path d="M229.857,227.405c-1.28-3.413-4.574-5.7-8.226-5.538c-3.644,0.102-6.827,2.509-7.91,5.99L171.054,364.39
				c-1.399,4.497,1.101,9.284,5.598,10.692c4.463,1.365,9.284-1.109,10.692-5.606l14.131-45.21h46.473l17.126,45.662
				c1.289,3.422,4.54,5.538,7.996,5.538c0.99,0,2.005-0.179,2.995-0.538c4.412-1.664,6.647-6.579,4.992-10.991L229.857,227.405z
				 M206.809,307.2l15.795-50.543l18.953,50.543H206.809z"/>
			<polygon points="307.2,5 307.2,102.399 404.599,102.399 			"/>
		</g>
	</g>
</g>
<g>
</g>
<g>
</g>
<g>
</g>
<g>
</g>
<g>
</g>
<g>
</g>
<g>
</g>
<g>
</g>
<g>
</g>
<g>
</g>
<g>
</g>
<g>
</g>
<g>
</g>
<g>
</g>
<g>
</g>
</svg>
