<?xml version="1.0" encoding="utf-8"?>
<!-- Generator: Adobe Illustrator 22.0.1, SVG Export Plug-In . SVG Version: 6.00 Build 0)  -->
<svg version="1.1" id="Capa_1" xmlns="http://www.w3.org/2000/svg" xmlns:xlink="http://www.w3.org/1999/xlink" x="0px" y="0px"
	 viewBox="0 0 512 512" style="enable-background:new 0 0 512 512;" xml:space="preserve">
<style type="text/css">
	.st0{fill:#FFFFFF;}
</style>
<g>
	<g>
		<path class="st0" d="M451.1,109c-71.2-71.2-182.8-81.3-265.4-24c-4.5,3.1-5.7,9.4-2.5,13.9c3.1,4.5,9.4,5.7,13.9,2.5
			c19.2-13.3,40.1-22.6,61.8-27.9c-3.9,4.9-7.7,10.4-11.3,16.6c-14.3,24.8-25,58.7-30.8,98.1c-0.8,5.5,3,10.5,8.4,11.4
			c5.5,0.8,10.5-3,11.4-8.4c1.2-8.2,2.7-16.3,4.4-24.1h126.3c5.2,24.2,8.2,51,8.8,79h-28c-5.5,0-10,4.5-10,10c0,5.5,4.5,10,10,10h28
			c-0.6,28-3.6,54.8-8.8,79h-49.5c-5.5,0-10,4.5-10,10s4.5,10,10,10h44.5c-2.7,9.6-5.9,18.7-9.4,27.2c-12.7,30.6-28.9,49-45.1,51.5
			c-2.5,0.1-5,0.1-7.4,0c-28.2-4.2-55-56.8-64.5-128c-0.7-5.5-5.8-9.3-11.2-8.6c-5.5,0.7-9.3,5.8-8.6,11.2
			c5.5,40.7,16,75.9,30.6,101.8c3.8,6.8,7.9,12.8,12.1,18.1c-23.6-5.8-46.4-16.2-66.8-31.4c-4.4-3.3-10.7-2.4-14,2
			c-3.3,4.4-2.4,10.7,2,14c35.8,26.7,79.5,41.1,124.1,41.1c0,0,0,0,0,0c0,0,0,0,0,0c0,0,0,0,0,0c4.7,0,9.5-0.2,14.3-0.5
			c50.1-3.4,97.3-24.9,132.8-60.4c39.3-39.3,60.9-91.5,60.9-147.1S490.4,148.3,451.1,109z M491.7,246.1H396
			c-0.6-27.7-3.4-54.5-8.4-79h82.1C482.7,191.2,490.3,218.1,491.7,246.1z M245.9,147.1c5.2-18.2,11.6-34.2,19-47
			c11.9-20.7,25.8-32,39.2-32c17.4,0,35.2,18.9,48.8,51.8c3.5,8.4,6.6,17.5,9.4,27.2H245.9z M371.3,112.2
			c-6.5-15.6-13.9-28.6-22.1-38.7c32.3,8,62.8,24.7,87.8,49.6c7.5,7.5,14.2,15.5,20.3,23.9h-74.3
			C379.6,134.6,375.7,122.9,371.3,112.2z M436.9,389c-24.7,24.7-55.2,41.2-87.4,49.2c8-10,15.4-22.9,21.8-38.3
			c4.4-10.7,8.3-22.4,11.6-34.8h74.3C451.2,373.5,444.4,381.5,436.9,389z M387.6,345.1c5-24.5,7.9-51.3,8.4-79h95.7
			c-1.5,28-9,54.8-22,79H387.6z"/>
	</g>
</g>
<g>
	<g>
		<path class="st0" d="M282.7,348c-1.9-1.9-4.4-2.9-7.1-2.9c-2.6,0-5.2,1.1-7.1,2.9c-1.9,1.9-2.9,4.4-2.9,7.1s1.1,5.2,2.9,7.1
			c1.9,1.9,4.4,2.9,7.1,2.9s5.2-1.1,7.1-2.9c1.9-1.9,2.9-4.4,2.9-7.1S284.6,349.8,282.7,348z"/>
	</g>
</g>
<g>
	<g>
		<path class="st0" d="M311.9,249.9c-15.7-20.5-40.5-32.7-66.3-32.7h-36.3l-36.6-88.1c-1.6-3.7-5.2-6.2-9.2-6.2h-37.8
			c-5.5,0-10,4.5-10,10v84.3H79.2l-25.5-30.6c-1.9-2.3-4.7-3.6-7.7-3.6H10c-3.6,0-6.9,1.9-8.6,5c-1.8,3.1-1.8,6.9,0,10L34.4,256
			L1.3,314.1c-1.8,3.1-1.7,6.9,0,10c1.8,3.1,5.1,5,8.6,5h36c3,0,5.8-1.3,7.7-3.6l25.5-30.6h36.5v84.4c0,5.5,4.5,10,10,10h37.8
			c4,0,7.7-2.4,9.2-6.2l36.6-88.2h36.3v0c25.8,0,50.6-12.2,66.3-32.7C314.7,258.5,314.7,253.5,311.9,249.9z M135.7,142.9h21.1
			l30.9,74.3h-52L135.7,142.9L135.7,142.9z M156.8,369.2h-21.1v-74.5h52L156.8,369.2z M245.7,274.8H76.1c-0.6-0.1-1.3-0.1-1.9-0.1
			c-2.8,0.1-5.4,1.4-7.2,3.6L41.3,309H27.2l27.4-48.1c1.7-3.1,1.7-6.8,0-9.9L27.2,203h14.1L67,233.7c1.8,2.2,4.4,3.5,7.2,3.6
			c0.6,0,1.3,0,1.9-0.1h169.6c16.9,0,33.3,6.9,45.1,18.8C278.9,267.9,262.6,274.8,245.7,274.8z"/>
	</g>
</g>
<g>
	<g>
		<path class="st0" d="M18.6,125.8c-1.9-1.9-4.4-2.9-7.1-2.9s-5.2,1.1-7.1,2.9s-2.9,4.4-2.9,7.1s1.1,5.2,2.9,7.1
			c1.9,1.9,4.4,2.9,7.1,2.9s5.2-1.1,7.1-2.9c1.9-1.9,2.9-4.4,2.9-7.1C21.5,130.3,20.4,127.7,18.6,125.8z"/>
	</g>
</g>
<g>
	<g>
		<path class="st0" d="M90.5,122.9H48c-5.5,0-10,4.5-10,10c0,5.5,4.5,10,10,10h42.5c5.5,0,10-4.5,10-10S96,122.9,90.5,122.9z"/>
	</g>
</g>
<g>
	<g>
		<path class="st0" d="M80.7,369.2H19c-5.5,0-10,4.5-10,10s4.5,10,10,10h61.7c5.5,0,10-4.5,10-10S86.2,369.2,80.7,369.2z"/>
	</g>
</g>
</svg>
