<?xml version="1.0" encoding="iso-8859-1"?>
<!-- Generator: Adobe Illustrator 19.0.0, SVG Export Plug-In . SVG Version: 6.00 Build 0)  -->
<svg version="1.1" id="Layer_1" xmlns="http://www.w3.org/2000/svg" xmlns:xlink="http://www.w3.org/1999/xlink" x="0px" y="0px"
	 viewBox="0 0 512 512" style="enable-background:new 0 0 512 512;" xml:space="preserve">
<g>
	<g>
		<path d="M488.533,4.267C486.4,2.133,484.266,0,480,0H32c-2.133,0-6.4,2.133-8.533,4.267C21.333,6.4,21.333,8.534,21.333,12.8
			L64,439.467c0,4.267,4.267,8.533,6.4,8.533l192,64c2.133,0,2.133,0,4.267,0c2.133,0,2.133,0,4.267,0L441.6,448
			c4.267-2.133,6.4-4.267,6.4-8.533L490.667,12.8C490.667,10.667,490.667,6.4,488.533,4.267z M362.667,366.934
			c0,4.267-4.267,6.4-6.4,8.533l-85.333,32c-2.133,0-2.133,0-4.267,0c-2.133,0-2.133,0-4.267,0l-96-32
			c-4.267-2.133-6.4-4.267-6.4-8.533L149.333,313.6c-2.133-6.4,2.133-10.667,8.533-12.8c6.4-2.133,10.667,2.133,12.8,8.533
			l8.533,46.934l87.467,29.867l76.8-27.733L364.8,238.934H151.467c-6.4,0-10.667-4.267-10.667-10.667
			c0-6.4,4.267-10.667,10.667-10.667h217.6l14.934-85.333h-243.2c-6.4,0-10.667-4.267-10.667-10.667
			c0-6.4,4.267-10.667,10.667-10.667h256c2.133,0,6.4,2.133,8.533,4.267c2.133,2.133,2.133,6.4,2.133,8.533L362.667,366.934z"/>
	</g>
</g>
<g>
</g>
<g>
</g>
<g>
</g>
<g>
</g>
<g>
</g>
<g>
</g>
<g>
</g>
<g>
</g>
<g>
</g>
<g>
</g>
<g>
</g>
<g>
</g>
<g>
</g>
<g>
</g>
<g>
</g>
</svg>
