<?xml version="1.0" encoding="iso-8859-1"?>
<!-- Generator: Adobe Illustrator 19.0.0, SVG Export Plug-In . SVG Version: 6.00 Build 0)  -->
<svg version="1.1" id="Capa_1" xmlns="http://www.w3.org/2000/svg" xmlns:xlink="http://www.w3.org/1999/xlink" x="0px" y="0px"
	 viewBox="0 0 512.001 512.001" style="enable-background:new 0 0 512.001 512.001;" xml:space="preserve">
<g>
	<g>
		<path d="M375,160c-5.51,0-10,4.49-10,10s4.49,10,10,10s10-4.49,10-10S380.51,160,375,160z"/>
	</g>
</g>
<g>
	<g>
		<path d="M137,160h-26c-5.51,0-10,4.49-10,10s4.49,10,10,10h26c5.51,0,10-4.49,10-10S142.51,160,137,160z"/>
	</g>
</g>
<g>
	<g>
		<path d="M71,160c-5.521,0-10,4.49-10,10s4.479,10,10,10c5.51,0,10-4.49,10-10S76.51,160,71,160z"/>
	</g>
</g>
<g>
	<g>
		<path d="M268.331,160c-5.511,0-10,4.49-10,10s4.489,10,10,10c5.52,0,10-4.49,10-10S273.851,160,268.331,160z"/>
	</g>
</g>
<g>
	<g>
		<path d="M509.99,124.005C509.994,124.003,420,4,420,4c-1.889-2.519-4.853-4-8-4H100c-3.147,0-6.111,1.481-8,4
			C92,4,2.008,124.003,2.011,124.004C0.755,125.676,0,127.748,0,130v80c0,2.455,0.888,4.7,2.356,6.441
			c-0.001,0.001,245.996,292.003,245.996,292.003c1.899,2.255,4.698,3.557,7.647,3.557c2.949,0,5.748-1.302,7.647-3.557
			c0,0,245.998-292.002,245.996-292.003C511.112,214.7,512,212.455,512,210v-80C512,127.748,511.247,125.677,509.99,124.005z
			 M413.281,28.374L482,120h-128.53L413.281,28.374z M394.864,20L335,111.706L275.138,20H394.864z M308.331,180H325v20H188.333v-60
			H325v20h-16.67c-5.511,0-10,4.49-10,10S302.82,180,308.331,180z M316.531,120H196.803l59.864-91.706L316.531,120z M238.198,20
			l-59.864,91.706L118.471,20H238.198z M99.432,27.424L159.864,120H30L99.432,27.424z M20,140h148.333v60H20V140z M31.5,220h138.495
			l64.705,241.197L31.5,220z M256,463.405L190.703,220h130.596L256,463.405z M277.299,461.197L342.005,220H480.5L277.299,461.197z
			 M492,160h-77c-5.51,0-10,4.49-10,10s4.49,10,10,10h77v20H345v-60h147V160z"/>
	</g>
</g>
<g>
</g>
<g>
</g>
<g>
</g>
<g>
</g>
<g>
</g>
<g>
</g>
<g>
</g>
<g>
</g>
<g>
</g>
<g>
</g>
<g>
</g>
<g>
</g>
<g>
</g>
<g>
</g>
<g>
</g>
</svg>
